<svg width="20" height="20" viewBox="0 0 20 20" fill="none" xmlns="http://www.w3.org/2000/svg">
<path d="M20 10C20 15.5228 15.5228 20 10 20C4.47715 20 0 15.5228 0 10C0 4.47715 4.47715 0 10 0C15.5228 0 20 4.47715 20 10Z" fill="#F3F3F4"/>
<path fill-rule="evenodd" clip-rule="evenodd" d="M5.68871 6.58929C5.84006 6.33869 6.67396 5.42719 7.26904 5.45471C7.44692 5.46945 7.60417 5.57706 7.73193 5.70187C8.0253 5.98834 8.86509 7.07181 8.91276 7.29981C9.02872 7.85899 8.36239 8.18133 8.56632 8.74493C9.08622 10.0171 9.98203 10.9129 11.2547 11.4322C11.8179 11.6362 12.1402 10.9699 12.6994 11.0863C12.927 11.134 14.011 11.9737 14.2975 12.2671C14.4218 12.3943 14.5299 12.5521 14.5446 12.7299C14.5668 13.3564 13.5987 14.2021 13.41 14.3102C12.9648 14.6286 12.384 14.6232 11.6759 14.294C9.69997 13.4719 6.54226 10.3738 5.70493 8.32333C5.38454 7.6192 5.36242 7.03447 5.68871 6.58929Z" stroke="#3B3943" stroke-width="0.632812" stroke-linecap="round" stroke-linejoin="round"/>
</svg>
