<svg width="165" height="67" viewBox="0 0 165 67" fill="none" xmlns="http://www.w3.org/2000/svg">
<path d="M0 32.0966C0 20.8311 0 15.1984 2.17987 10.9202C4.09734 7.15695 7.15695 4.09734 10.9202 2.17987C15.1984 0 20.799 0 32 0H137.311C144.465 0 148.043 0 150.947 0.904779C157.225 2.85991 162.14 7.7753 164.095 14.0525C165 16.9574 165 20.5346 165 27.6889C165 34.3213 165 37.6375 164.188 40.3988C162.437 46.358 158.016 51.1653 152.225 53.409C149.541 54.4486 146.236 54.726 139.627 55.2807L34.6765 64.0895C22.6405 65.0997 16.6224 65.6048 11.9797 63.5725C7.90064 61.7868 4.53411 58.691 2.41356 54.7756C0 50.3191 0 44.2449 0 32.0966Z" fill="#FF5555"/>
<path d="M38.5547 39V24.9082H26.8359V39H29.3652V27.0469H36.0449V39H38.5547ZM46.582 39.2148C49.7754 39.2148 51.7188 37.125 51.7188 33.6582C51.7188 30.2109 49.7656 28.1211 46.582 28.1211C43.4082 28.1211 41.4453 30.2207 41.4453 33.6582C41.4453 37.125 43.3789 39.2148 46.582 39.2148ZM46.582 37.2324C44.8926 37.2324 43.9258 35.9238 43.9258 33.668C43.9258 31.4121 44.8926 30.1035 46.582 30.1035C48.2617 30.1035 49.2285 31.4121 49.2285 33.668C49.2285 35.9238 48.2715 37.2324 46.582 37.2324ZM55.2148 41.7832V39H62.8711V41.7832H65.0977V37.1152H63.457V28.3262H55.4199L55.0488 33.9316C54.9512 35.3672 54.6191 36.6465 53.8281 37.1152H52.9883V41.7832H55.2148ZM61.0352 37.1152H56.4258V36.9395C56.8945 36.2754 57.1387 35.2305 57.2266 34.0586L57.5 30.2109H61.0352V37.1152ZM72.9883 28.1504C71.5234 28.1504 70.2832 28.8828 69.668 30.0938H69.502V28.3262H67.168V42.5449H69.5898V37.3789H69.7559C70.3027 38.5117 71.4844 39.1758 73.0176 39.1758C75.7129 39.1758 77.3926 37.0566 77.3926 33.668C77.3926 30.25 75.6934 28.1504 72.9883 28.1504ZM72.2266 37.1641C70.5762 37.1641 69.5508 35.8262 69.541 33.668C69.5508 31.5098 70.5859 30.1719 72.2363 30.1719C73.8965 30.1719 74.9023 31.4805 74.9023 33.668C74.9023 35.8555 73.9062 37.1641 72.2266 37.1641ZM84.6289 39.2148C87.8223 39.2148 89.7656 37.125 89.7656 33.6582C89.7656 30.2109 87.8125 28.1211 84.6289 28.1211C81.4551 28.1211 79.4922 30.2207 79.4922 33.6582C79.4922 37.125 81.4258 39.2148 84.6289 39.2148ZM84.6289 37.2324C82.9395 37.2324 81.9727 35.9238 81.9727 33.668C81.9727 31.4121 82.9395 30.1035 84.6289 30.1035C86.3086 30.1035 87.2754 31.4121 87.2754 33.668C87.2754 35.9238 86.3184 37.2324 84.6289 37.2324ZM97.1191 39.2148C100.303 39.2148 102.275 37.1445 102.275 33.7754C102.275 30.5918 100.371 28.6484 97.5781 28.6484C95.8105 28.6484 94.6387 29.459 93.9941 30.6504H93.8281C94.1211 28.1895 94.9805 26.8223 97.6953 26.7148L98.9258 26.666C100.879 26.5977 101.572 26.1387 101.572 26.1387V24.1758C101.582 24.1758 100.449 24.5957 98.7793 24.6641L97.5195 24.7129C93.4668 24.8789 91.9043 27.584 91.9043 32.8184C91.9043 37.1152 93.8184 39.2148 97.1191 39.2148ZM97.0898 37.2324C95.3711 37.2324 94.3945 35.9922 94.3945 33.8242C94.3945 31.7539 95.3809 30.5527 97.0898 30.5527C98.7988 30.5527 99.7852 31.7539 99.7852 33.8242C99.7852 35.9922 98.7988 37.2324 97.0898 37.2324ZM111.875 39H114.297V28.3262H111.875V32.5547H107.354V28.3262H104.932V39H107.354V34.4492H111.875V39ZM124.424 36.0801C124.072 36.8809 123.242 37.3301 122.041 37.3301C120.449 37.3301 119.424 36.1973 119.365 34.3906V34.2637H126.826V33.4922C126.826 30.1426 125 28.1211 121.953 28.1211C118.857 28.1211 116.934 30.2793 116.934 33.707C116.934 37.125 118.828 39.2148 121.973 39.2148C124.492 39.2148 126.279 38.0039 126.719 36.0801H124.424ZM121.943 30.0059C123.398 30.0059 124.355 31.0312 124.404 32.6523H119.375C119.482 31.0508 120.498 30.0059 121.943 30.0059ZM136.416 36.0801C136.064 36.8809 135.234 37.3301 134.033 37.3301C132.441 37.3301 131.416 36.1973 131.357 34.3906V34.2637H138.818V33.4922C138.818 30.1426 136.992 28.1211 133.945 28.1211C130.85 28.1211 128.926 30.2793 128.926 33.707C128.926 37.125 130.82 39.2148 133.965 39.2148C136.484 39.2148 138.271 38.0039 138.711 36.0801H136.416ZM133.936 30.0059C135.391 30.0059 136.348 31.0312 136.396 32.6523H131.367C131.475 31.0508 132.49 30.0059 133.936 30.0059Z" fill="white"/>
</svg>
